<svg xmlns="http://www.w3.org/2000/svg" style="display: none;">
    <symbol  id="icon-left-chat" viewBox="0 0 16 16">
        <path fill-rule="evenodd" d="M14 1H2a1 1 0 0 0-1 1v11.586l2-2A2 2 0 0 1 4.414 11H14a1 1 0 0 0 1-1V2a1 1 0 0 0-1-1zM2 0a2 2 0 0 0-2 2v12.793a.5.5 0 0 0 .854.353l2.853-2.853A1 1 0 0 1 4.414 12H14a2 2 0 0 0 2-2V2a2 2 0 0 0-2-2H2z"/>
        <path d="M5 6a1 1 0 1 1-2 0 1 1 0 0 1 2 0zm4 0a1 1 0 1 1-2 0 1 1 0 0 1 2 0zm4 0a1 1 0 1 1-2 0 1 1 0 0 1 2 0z"/>
    </symbol>
    <symbol id="icon-x-circle" viewBox="0 0 16 16">
        <path fill-rule="evenodd" d="M8 15A7 7 0 1 0 8 1a7 7 0 0 0 0 14zm0 1A8 8 0 1 0 8 0a8 8 0 0 0 0 16z" />
        <path file-rule="evenodd" d="M4.646 4.646a.5.5 0 0 1 .708 0L8 7.293l2.646-2.647a.5.5 0 0 1 .708.708L8.707 8l2.647 2.646a.5.5 0 0 1-.708.708L8 8.707l-2.646 2.647a.5.5 0 0 1-.708-.708L7.293 8 4.646 5.354a.5.5 0 0 1 0-.708z" />
    </symbol>
    <symbol id="icon-gear" viewBox="0 0 16 16">
        <path fill-rule="evenodd" d="M8.837 1.626c-.246-.835-1.428-.835-1.674 0l-.094.319A1.873 1.873 0 0 1 4.377 3.06l-.292-.16c-.764-.415-1.6.42-1.184 1.185l.159.292a1.873 1.873 0 0 1-1.115 2.692l-.319.094c-.835.246-.835 1.428 0 1.674l.319.094a1.873 1.873 0 0 1 1.115 2.693l-.16.291c-.415.764.42 1.6 1.185 1.184l.292-.159a1.873 1.873 0 0 1 2.692 1.116l.094.318c.246.835 1.428.835 1.674 0l.094-.319a1.873 1.873 0 0 1 2.693-1.115l.291.16c.764.415 1.6-.42 1.184-1.185l-.159-.291a1.873 1.873 0 0 1 1.116-2.693l.318-.094c.835-.246.835-1.428 0-1.674l-.319-.094a1.873 1.873 0 0 1-1.115-2.692l.16-.292c.415-.764-.42-1.6-1.185-1.184l-.291.159A1.873 1.873 0 0 1 8.93 1.945l-.094-.319zm-2.633-.283c.527-1.79 3.065-1.79 3.592 0l.094.319a.873.873 0 0 0 1.255.52l.292-.16c1.64-.892 3.434.901 2.54 2.541l-.159.292a.873.873 0 0 0 .52 1.255l.319.094c1.79.527 1.79 3.065 0 3.592l-.319.094a.873.873 0 0 0-.52 1.255l.16.292c.893 1.64-.902 3.434-2.541 2.54l-.292-.159a.873.873 0 0 0-1.255.52l-.094.319c-.527 1.79-3.065 1.79-3.592 0l-.094-.319a.873.873 0 0 0-1.255-.52l-.292.16c-1.64.893-3.433-.902-2.54-2.541l.159-.292a.873.873 0 0 0-.52-1.255l-.319-.094c-1.79-.527-1.79-3.065 0-3.592l.319-.094a.873.873 0 0 0 .52-1.255l-.16-.292c-.892-1.64.902-3.433 2.541-2.54l.292.159a.873.873 0 0 0 1.255-.52l.094-.319z"/>
        <path fill-rule="evenodd" d="M8 5.754a2.246 2.246 0 1 0 0 4.492 2.246 2.246 0 0 0 0-4.492zM4.754 8a3.246 3.246 0 1 1 6.492 0 3.246 3.246 0 0 1-6.492 0z"/>
    </symbol>
    <symbol id="icon-person-plus" viewBox="0 0 16 16">
        <path d="M6 8a3 3 0 1 0 0-6 3 3 0 0 0 0 6zm2-3a2 2 0 1 1-4 0 2 2 0 0 1 4 0zm4 8c0 1-1 1-1 1H1s-1 0-1-1 1-4 6-4 6 3 6 4zm-1-.004c-.001-.246-.154-.986-.832-1.664C9.516 10.68 8.289 10 6 10c-2.29 0-3.516.68-4.168 1.332-.678.678-.83 1.418-.832 1.664h10z"/>
         <path fill-rule="evenodd" d="M13.5 5a.5.5 0 0 1 .5.5V7h1.5a.5.5 0 0 1 0 1H14v1.5a.5.5 0 0 1-1 0V8h-1.5a.5.5 0 0 1 0-1H13V5.5a.5.5 0 0 1 .5-.5z"/>
   </symbol>
   <symbol id="icon-chevron-left" viewBox="0 0 16 16">
        <path fill-rule="evenodd" d="M11.354 1.646a.5.5 0 0 1 0 .708L5.707 8l5.647 5.646a.5.5 0 0 1-.708.708l-6-6a.5.5 0 0 1 0-.708l6-6a.5.5 0 0 1 .708 0z"/>
    </symbol>
</svg>